# xmcd CD database file
#
# Track frame offsets:
#	182
#	13845
#	28395
#	40395
#	54927
#	70727
#	84125
#	96905
#	110915
#	126060
#	140817
#	155370
#	169892
#	184390
#	198615
#	208230
#	219567
#	230417
#
# Disc length: 3142 seconds
#
# Revision: 0
# Processed by: cddbd v1.4PL0 Copyright (c) Steve Scherf et al.
# Submitted via: CDex 1.50beta9
#
DISCID=110c4412
DTITLE=Various Artist - From Where I Stand - CD 1
DYEAR=1998
DGENRE=Country
TTITLE0=DeFord Bailey-Pan American Blues
TTITLE1=DeFord Bailey-Muscle Shoals Blues-
TTITLE2=Taylor's Kentucky Boys-Gray Eagle
TTITLE3=Georgia Yellow Hammers-G Rag
TTITLE4=Andrew and Jim Baxter-K.C. Railroad Blues
TTITLE5=The Dallas String Band-Dallas Rag
TTITLE6=James Cole String Band-Bill Cheatem
TTITLE7=Peg Leg Howell and Eddie Anthony-Turkey Buzzard Blues
TTITLE8=Charlie McCoy and Bo Chatmon-Corrina Corrina
TTITLE9=Mississippi Shelks-Sitting On Top Of The World
TTITLE10=Mississippi Shelks-Yodeling Fiddeling Blues
TTITLE11=Memphis Shelks-In The Jailhouse Now
TTITLE12=Mississippi Mud Stompers-Morning Glory Waltz
TTITLE13=Leadbelly-Midnight Special
TTITLE14=Leadbelly-Rock Island Line
TTITLE15=Nathan Fraizer and Frank Patterson-Eighth Of January
TTITLE16=Murph Gribble, John Lusk, Albert York-Apple Blossom
TTITLE17=DeFord Bailey-Fox Chase
EXTD=YEAR: 1998
EXTT0=
EXTT1=
EXTT2=
EXTT3=
EXTT4=
EXTT5=
EXTT6=
EXTT7=
EXTT8=
EXTT9=
EXTT10=
EXTT11=
EXTT12=
EXTT13=
EXTT14=
EXTT15=
EXTT16=
EXTT17=
PLAYORDER=
